HIERARCHY
ROOT Hips
{
	OFFSET 0.000000 0.000000 0.000000
	CHANNELS 6 Xposition Yposition Zposition Xrotation Yrotation Zrotation
	JOINT LeftUpLeg_virtual
	{
		OFFSET 0.000000 0.000000 0.000000
		CHANNELS 3 Xrotation Yrotation Zrotation
		JOINT LeftUpLeg
		{
			OFFSET 11.394100 -6.187798 -0.413800
			CHANNELS 3 Xrotation Yrotation Zrotation
			JOINT LeftLeg
			{
				OFFSET 0.430247 -32.302673 3.732800
				CHANNELS 3 Xrotation Yrotation Zrotation
				JOINT LeftFoot
				{
					OFFSET -0.430247 -48.264931 -6.423300
					CHANNELS 3 Xrotation Yrotation Zrotation
					JOINT LeftToeBase
					{
						OFFSET 4.230900 -16.068199 23.438400
						CHANNELS 3 Xrotation Yrotation Zrotation
						JOINT LeftToe_End
						{
							OFFSET 4.510700 0.695400 19.974600
							CHANNELS 3 Xrotation Yrotation Zrotation
							End Site
							{
								OFFSET 0 0 0
							}
						}
					}
				}
			}
		}
	}
	JOINT RightUpLeg_virtual
	{
		OFFSET 0.000000 0.000000 0.000000
		CHANNELS 3 Xrotation Yrotation Zrotation
		JOINT RightUpLeg
		{
			OFFSET -11.333700 -6.187798 -0.413800
			CHANNELS 3 Xrotation Yrotation Zrotation
			JOINT RightLeg
			{
				OFFSET -0.430392 -32.302628 3.733000
				CHANNELS 3 Xrotation Yrotation Zrotation
				JOINT RightFoot
				{
					OFFSET 0.430392 -48.264973 -6.423500
					CHANNELS 3 Xrotation Yrotation Zrotation
					JOINT RightToeBase
					{
						OFFSET -4.230900 -16.068199 23.438400
						CHANNELS 3 Xrotation Yrotation Zrotation
						JOINT RightToe_End
						{
							OFFSET -4.510700 0.695400 19.974600
							CHANNELS 3 Xrotation Yrotation Zrotation
							End Site
							{
								OFFSET 0 0 0
							}
						}
					}
				}
			}
		}
	}
	JOINT Spine_virtual
	{
		OFFSET 0.000000 0.000000 0.000000
		CHANNELS 3 Xrotation Yrotation Zrotation
		JOINT Spine
		{
			OFFSET -0.002400 12.777504 0.315300
			CHANNELS 3 Xrotation Yrotation Zrotation
			JOINT Spine1
			{
				OFFSET -0.002067 5.816869 0.032633
				CHANNELS 3 Xrotation Yrotation Zrotation
				JOINT Spine1_split
				{
					OFFSET -0.002067 5.816869 0.032633
					CHANNELS 3 Xrotation Yrotation Zrotation
					JOINT Spine2
					{
						OFFSET -0.002067 5.816869 0.032633
						CHANNELS 3 Xrotation Yrotation Zrotation
						JOINT Neck_virtual
						{
							OFFSET 0.000000 0.000000 0.000000
							CHANNELS 3 Xrotation Yrotation Zrotation
							JOINT Neck
							{
								OFFSET -0.003700 21.199493 -0.826900
								CHANNELS 3 Xrotation Yrotation Zrotation
								JOINT Head
								{
									OFFSET 0.000000 20.442200 4.834800
									CHANNELS 3 Xrotation Yrotation Zrotation
									JOINT HeadTop_End
									{
										OFFSET 0.000000 34.668396 4.968400
										CHANNELS 3 Xrotation Yrotation Zrotation
										End Site
										{
											OFFSET 0 0 0
										}
									}
								}
							}
						}
						JOINT LeftShoulder_virtual
						{
							OFFSET 0.000000 0.000000 0.000000
							CHANNELS 3 Xrotation Yrotation Zrotation
							JOINT LeftShoulder
							{
								OFFSET 3.288150 8.794197 -1.372250
								CHANNELS 3 Xrotation Yrotation Zrotation
								JOINT LeftShoulder_split
								{
									OFFSET 3.288150 8.794197 -1.372250
									CHANNELS 3 Xrotation Yrotation Zrotation
									JOINT LeftArm
									{
										OFFSET 11.953299 -2.279007 -0.146200
										CHANNELS 3 Xrotation Yrotation Zrotation
										JOINT LeftForeArm
										{
											OFFSET 18.448900 0.000000 0.000000
											CHANNELS 3 Xrotation Yrotation Zrotation
											JOINT LeftHand
											{
												OFFSET 29.527798 0.000000 0.000000
												CHANNELS 3 Xrotation Yrotation Zrotation
												End Site
												{
													OFFSET 0 0 0
												}
											}
										}
									}
								}
							}
						}
						JOINT RightShoulder_virtual
						{
							OFFSET 0.000000 0.000000 0.000000
							CHANNELS 3 Xrotation Yrotation Zrotation
							JOINT RightShoulder
							{
								OFFSET -3.249400 8.794197 -1.372250
								CHANNELS 3 Xrotation Yrotation Zrotation
								JOINT RightShoulder_split
								{
									OFFSET -3.249400 8.794197 -1.372250
									CHANNELS 3 Xrotation Yrotation Zrotation
									JOINT RightArm
									{
										OFFSET -11.953299 -2.279007 -0.146200
										CHANNELS 3 Xrotation Yrotation Zrotation
										JOINT RightForeArm
										{
											OFFSET -18.448900 0.000000 0.000000
											CHANNELS 3 Xrotation Yrotation Zrotation
											JOINT RightHand
											{
												OFFSET -29.527802 0.000000 0.000000
												CHANNELS 3 Xrotation Yrotation Zrotation
												End Site
												{
													OFFSET 0 0 0
												}
											}
										}
									}
								}
							}
						}
					}
				}
			}
		}
	}
}
MOTION
Frames: 7
Frame Time: 0.03333333
-5.571671 88.649490 78.292526 0.000000 0.000000 0.000000 25.429583 18.788387 -5.582975 -41.473114 2.940250 -8.177517 38.869360 4.880451 3.017879 -21.385100 -4.968100 12.460773 7.132541 0.090653 -2.523083 0.000000 0.000000 0.000000 25.040160 19.748925 -5.593230 -69.696268 1.832191 -14.788025 59.392689 -2.529428 1.572203 12.897918 -6.052557 15.766144 5.738523 10.491977 -23.502368 0.000000 0.000000 0.000000 24.120818 27.706953 -8.154614 6.827323 -4.027159 -0.814542 1.750899 0.725475 -1.492318 0.142389 -0.299702 0.115906 0.000000 0.000000 0.000000 3.016834 3.056769 -0.897318 -19.557277 12.602607 5.246574 -26.571237 -5.774209 1.750381 0.000000 0.000000 0.000000 0.135134 2.411999 -1.792133 0.945804 3.172346 -16.749215 0.030038 -0.550053 -1.118027 4.708291 3.692040 -46.235804 -2.665050 -61.799012 -4.522567 0.000000 0.000000 0.000000 3.385522 2.429864 -1.698028 -5.049540 3.050673 15.969925 -1.084880 -0.781211 2.651013 15.614769 -16.822531 47.089260 -3.641264 65.701666 6.073661 0.000000 0.000000 0.000000 
-5.269788 88.916962 85.900337 0.000000 0.000000 0.000000 25.796590 20.864073 -6.268111 -34.784320 1.867757 -7.437081 35.128168 5.108340 2.984538 -23.305487 -4.946508 11.864574 4.319382 -0.169385 -3.021077 0.000000 0.000000 0.000000 26.150042 21.647340 -6.651390 -72.272738 3.877399 -12.577454 54.248108 -6.600520 1.995189 11.588329 -7.661782 15.317191 6.797635 9.757735 -20.919087 0.000000 0.000000 0.000000 24.289334 29.970638 -8.542806 6.310368 -4.673952 -0.920445 2.252286 0.500141 -1.498384 0.178467 -0.169661 0.119054 0.000000 0.000000 0.000000 3.435371 2.944865 -0.917508 -19.612152 12.540034 5.971759 -26.678251 -5.125967 1.218897 0.000000 0.000000 0.000000 0.537454 2.285037 -1.810364 1.157211 3.518776 -17.117661 -0.333173 -1.342653 -1.331550 4.090444 2.607360 -46.245589 -2.157846 -60.601994 -3.873066 0.000000 0.000000 0.000000 3.722834 2.275830 -1.744965 -4.694817 3.044179 16.032213 -1.151016 -0.481331 2.446106 15.511838 -17.312288 47.656173 -2.764712 65.576762 5.037677 0.000000 0.000000 0.000000 
-4.819073 88.515984 93.329132 0.000000 0.000000 0.000000 25.549269 22.426214 -6.677549 -29.749019 1.089481 -5.693280 34.088617 2.711410 2.898361 -24.028503 -5.571010 8.775699 2.287075 -0.468796 -2.546936 0.000000 0.000000 0.000000 26.727131 23.745050 -7.705079 -73.458664 4.574003 -10.904744 49.169384 -10.090739 1.957796 9.210420 -8.740854 16.044832 5.532204 9.201617 -18.578821 0.000000 0.000000 0.000000 24.115955 32.008418 -8.684334 6.103595 -5.382217 -1.066525 2.729502 0.294669 -1.469280 0.178896 -0.022750 0.096159 0.000000 0.000000 0.000000 3.813050 2.830333 -0.928510 -19.920108 12.367388 6.860352 -27.222706 -4.538303 0.562552 0.000000 0.000000 0.000000 0.987887 2.173064 -1.789628 1.343155 3.623438 -17.431637 -0.372970 -1.966718 -1.464152 3.501335 1.916840 -46.307457 -1.048887 -59.993267 -2.739817 0.000000 0.000000 0.000000 4.084616 2.136680 -1.735016 -4.375924 2.709732 15.746349 -1.331969 -0.371259 2.270875 15.417487 -17.460368 48.226231 -1.890779 65.509683 4.080460 0.000000 0.000000 0.000000 
-4.390754 87.795654 100.329269 0.000000 0.000000 0.000000 25.273508 23.855979 -7.052173 -24.895584 0.939619 -3.934615 34.197572 -0.352803 2.541261 -25.960596 -6.337756 5.784378 2.435920 -1.046185 -1.596491 0.000000 0.000000 0.000000 26.651275 26.150354 -8.554341 -74.947714 4.935021 -9.915421 45.318466 -11.701215 1.444599 7.513880 -8.450017 18.693572 4.950610 8.412024 -16.925122 0.000000 0.000000 0.000000 23.931731 33.567921 -8.718985 6.092562 -6.122484 -1.122405 3.095757 0.095269 -1.381239 0.155712 0.165690 0.080761 0.000000 0.000000 0.000000 4.111696 2.693006 -0.881237 -20.376242 12.245524 7.554900 -28.127129 -3.931104 -0.258432 0.000000 0.000000 0.000000 1.437378 2.035072 -1.687597 1.487262 3.486868 -17.648966 -0.246914 -2.401093 -1.528249 3.102678 1.748292 -46.496882 0.648092 -59.615605 -1.129819 0.000000 0.000000 0.000000 4.452322 1.998714 -1.643541 -4.128882 1.986089 15.062041 -1.559551 -0.248095 2.244058 15.141288 -17.062694 48.756318 -1.075670 65.353162 3.212633 0.000000 0.000000 0.000000 
-3.972728 86.674248 106.862595 0.000000 0.000000 0.000000 25.216966 25.574083 -7.670685 -19.586346 1.616255 -2.576885 33.959205 -1.982805 1.642040 -30.610896 -6.952764 4.985288 3.270418 -1.942856 -0.591428 0.000000 0.000000 0.000000 26.190813 28.081804 -9.095611 -76.981833 5.217167 -9.251618 42.665770 -11.669309 0.791462 5.828403 -7.206916 21.737936 5.648350 7.638204 -16.591235 0.000000 0.000000 0.000000 23.708635 34.837865 -8.791761 6.152787 -6.858811 -0.992902 3.293333 -0.140843 -1.228185 0.135932 0.249127 0.031294 0.000000 0.000000 0.000000 4.336177 2.491224 -0.747790 -20.862729 12.299049 7.759093 -29.091821 -3.336054 -1.254229 0.000000 0.000000 0.000000 1.841685 1.832844 -1.498478 1.567242 3.123752 -17.796635 -0.019323 -2.533859 -1.554900 2.850616 2.162794 -46.894416 2.698409 -59.192209 0.733790 0.000000 0.000000 0.000000 4.785161 1.819142 -1.460056 -3.987705 0.904270 14.053830 -1.709736 -0.036594 2.258766 14.691035 -16.043259 49.319713 -0.402609 65.092099 2.468606 0.000000 0.000000 0.000000 
-3.585025 85.426804 113.193878 0.000000 0.000000 0.000000 25.527878 27.103586 -8.526555 -15.203631 2.756448 -1.179048 34.002826 -2.463881 0.403972 -35.004429 -7.337665 4.837943 1.965907 -3.075998 -0.114663 0.000000 0.000000 0.000000 25.643640 29.467779 -9.582759 -78.339948 5.043778 -8.696785 40.847864 -10.808229 0.338104 3.065186 -6.034106 23.288418 6.681746 7.134251 -17.461114 0.000000 0.000000 0.000000 23.597443 35.792373 -9.115550 6.223768 -7.542999 -0.627513 3.305231 -0.447673 -1.006735 0.143869 0.239529 -0.016301 0.000000 0.000000 0.000000 4.488065 2.192594 -0.524362 -21.282342 12.526790 7.325590 -29.784423 -2.608497 -2.373239 0.000000 0.000000 0.000000 2.172208 1.534870 -1.225030 1.580666 2.600761 -17.900502 0.285133 -2.256849 -1.539005 2.700932 3.062279 -47.543622 4.721634 -58.653867 2.531569 0.000000 0.000000 0.000000 5.083374 1.563185 -1.189454 -3.946296 -0.530619 12.850300 -1.932046 0.318498 2.329463 14.120142 -14.514242 49.852233 0.115605 64.797772 1.841079 0.000000 0.000000 0.000000 
-3.212773 84.232491 119.237442 0.000000 0.000000 0.000000 25.617538 28.359780 -9.564951 -12.873448 4.170053 0.671327 35.710329 -1.654541 -1.152758 -35.170987 -7.460952 4.922468 -2.373830 -4.360855 -1.330039 0.000000 0.000000 0.000000 25.037679 30.176520 -10.233834 -78.127508 4.043827 -7.955127 39.912408 -10.333311 0.308844 -0.679751 -6.154488 21.942341 7.863537 6.898714 -18.809050 0.000000 0.000000 0.000000 23.641100 36.461233 -9.835334 6.249495 -8.038207 -0.059123 3.213835 -0.799784 -0.721393 0.143882 0.215261 -0.029340 0.000000 0.000000 0.000000 4.586744 1.818044 -0.227684 -21.624077 12.859389 6.370596 -30.125208 -1.895211 -3.516845 0.000000 0.000000 0.000000 2.400148 1.141352 -0.865537 1.506525 1.967335 -17.950330 0.564483 -1.717956 -1.411340 2.736098 4.465066 -48.473190 6.301191 -58.071457 3.915645 0.000000 0.000000 0.000000 5.304281 1.227917 -0.834902 -3.997800 -2.111219 11.726935 -2.064274 0.820383 2.242431 13.515377 -12.657092 50.303729 0.451498 64.294360 1.336592 0.000000 0.000000 0.000000 
